<svg width="24" height="24" viewBox="0 0 24 24" fill="none" xmlns="http://www.w3.org/2000/svg">
<path d="M18.2228 16.1749C18.4606 16.4114 18.4606 16.7967 18.2228 17.0346C17.8415 17.4159 17.185 17.1449 17.185 16.6041C17.185 16.0633 17.8414 15.7922 18.2228 16.1749ZM12.8056 7.74802V6.92419C12.8056 6.70359 12.9916 6.57206 13.2069 6.52289L14.1038 6.31959C14.1888 6.01134 14.311 5.71903 14.4665 5.44659L13.9749 4.66664C13.8579 4.48059 13.8194 4.25606 13.9749 4.10058L14.5569 3.51858C14.7137 3.36178 14.9369 3.40031 15.1243 3.51858L15.9042 4.00889C16.1753 3.85345 16.4676 3.7312 16.7759 3.64748L16.9805 2.74927C17.0296 2.53402 17.1612 2.34797 17.3818 2.34797H18.2043C18.4248 2.34797 18.5564 2.53402 18.6056 2.74927L18.8102 3.64748C19.1184 3.7312 19.4108 3.85345 19.6818 4.00889L20.4618 3.51858C20.6491 3.40031 20.8737 3.36178 21.0292 3.51858L21.6112 4.10058C21.7666 4.25606 21.7281 4.48059 21.6112 4.66664L21.1209 5.44659C21.275 5.71767 21.3972 6.0113 21.4823 6.31959L22.3805 6.52289C22.5944 6.57206 22.7804 6.70359 22.7804 6.92419V7.74802C22.7804 7.96861 22.5944 8.10014 22.3805 8.14795L21.4823 8.35256C21.3972 8.66081 21.275 8.95313 21.1209 9.22556L21.6112 10.0042C21.7281 10.1916 21.7666 10.4161 21.6112 10.5716L21.0292 11.1536C20.8737 11.3104 20.6491 11.2718 20.4618 11.1536L19.6831 10.6633C19.4108 10.8174 19.1184 10.941 18.8101 11.0247L18.6055 11.9229C18.5564 12.1381 18.4248 12.3242 18.2042 12.3242H17.3817C17.1612 12.3242 17.0296 12.1381 16.9804 11.9229L16.7758 11.0247C16.4676 10.9396 16.1752 10.8174 15.9042 10.6633L15.1242 11.1536C14.9369 11.2718 14.7136 11.3104 14.5569 11.1536L13.9749 10.5716C13.8194 10.4161 13.8579 10.1916 13.9749 10.0042L14.4652 9.22556C14.311 8.95317 14.1888 8.66086 14.1038 8.35256L13.2069 8.14795C12.9916 8.10009 12.8056 7.96856 12.8056 7.74802ZM15.3793 7.33613C15.3793 8.66888 16.4596 9.74911 17.7937 9.74911C19.1277 9.74911 20.2066 8.66888 20.2066 7.33613C20.2066 6.00338 19.1264 4.92314 17.7937 4.92314C16.461 4.92314 15.3793 6.00342 15.3793 7.33613ZM19.1025 8.64492C19.8253 7.92206 19.8253 6.75014 19.1025 6.02728C18.3796 5.30447 17.2064 5.30447 16.4848 6.02728C15.762 6.75014 15.762 7.92206 16.4848 8.64492C17.2063 9.36773 18.3796 9.36773 19.1025 8.64492ZM10.2982 12.8809C11.5764 11.6027 11.5764 9.52852 10.2982 8.24892C9.01862 6.96933 6.94449 6.96933 5.6649 8.24892C4.3853 9.52852 4.3853 11.6026 5.6649 12.8809C6.94449 14.1605 9.01862 14.1605 10.2982 12.8809ZM22.7365 20.3192C22.5957 20.1783 22.4004 20.0893 22.1851 20.0893H13.4008C12.9517 20.0893 12.5996 20.4706 12.6195 20.9038C12.6394 21.3171 12.9796 21.6519 13.4008 21.6519H22.1851C22.8707 21.6519 23.2335 20.8161 22.7365 20.3191V20.3192ZM12.8321 19.6535V16.1456C9.00535 12.7162 1.24819 14.3518 1.0329 20.9809H12.0615C12.015 20.4122 12.3312 19.8887 12.8321 19.6535ZM21.8636 13.7619C22.043 13.7619 22.1918 13.9094 22.1918 14.0901V19.5273H13.3942V14.0901C13.3942 13.9094 13.543 13.7619 13.7224 13.7619H21.8636ZM17.7937 15.4335C17.1466 15.4335 16.6231 15.9583 16.6231 16.6041C16.6231 17.6431 17.8854 18.168 18.6202 17.4319C19.3563 16.6958 18.8328 15.4335 17.7937 15.4335H17.7937Z" fill="#8C8C8C"/>
</svg>
