<svg width="24" height="24" viewBox="0 0 24 24" fill="none" xmlns="http://www.w3.org/2000/svg">
<path d="M18 2H6C5.20436 2 4.44129 2.31607 3.87868 2.87868C3.31608 3.44129 3 4.20435 3 5V19.8C2.99927 20.138 3.08423 20.4707 3.24694 20.767C3.40966 21.0633 3.64482 21.3136 3.93046 21.4943C4.2161 21.6751 4.5429 21.7805 4.88033 21.8008C5.21776 21.821 5.55482 21.7554 5.86 21.61C6.1 21.49 6.31 21.36 6.53 21.23C6.95312 20.9123 7.47107 20.7467 8 20.76C8.53201 20.7468 9.05309 20.9123 9.48 21.23C10.2184 21.7447 11.1 22.014 12 22C12.9001 22.0147 13.7819 21.7453 14.52 21.23C14.9466 20.9116 15.4679 20.746 16 20.76C16.5292 20.7451 17.0476 20.9109 17.47 21.23C17.6866 21.3651 17.9103 21.4886 18.14 21.6C18.4444 21.745 18.7806 21.8107 19.1172 21.7909C19.4538 21.7712 19.7799 21.6666 20.0653 21.487C20.3507 21.3074 20.586 21.0586 20.7494 20.7636C20.9129 20.4687 20.9991 20.1372 21 19.8V5C21 4.20435 20.6839 3.44129 20.1213 2.87868C19.5587 2.31607 18.7957 2 18 2ZM12 16H8C7.73479 16 7.48043 15.8946 7.2929 15.7071C7.10536 15.5196 7 15.2652 7 15C7 14.7348 7.10536 14.4804 7.2929 14.2929C7.48043 14.1054 7.73479 14 8 14H12C12.2652 14 12.5196 14.1054 12.7071 14.2929C12.8946 14.4804 13 14.7348 13 15C13 15.2652 12.8946 15.5196 12.7071 15.7071C12.5196 15.8946 12.2652 16 12 16ZM16 12H8C7.73479 12 7.48043 11.8946 7.2929 11.7071C7.10536 11.5196 7 11.2652 7 11C7 10.7348 7.10536 10.4804 7.2929 10.2929C7.48043 10.1054 7.73479 10 8 10H16C16.2652 10 16.5196 10.1054 16.7071 10.2929C16.8946 10.4804 17 10.7348 17 11C17 11.2652 16.8946 11.5196 16.7071 11.7071C16.5196 11.8946 16.2652 12 16 12ZM16 8H8C7.73479 8 7.48043 7.89464 7.2929 7.70711C7.10536 7.51957 7 7.26522 7 7C7 6.73478 7.10536 6.48043 7.2929 6.29289C7.48043 6.10536 7.73479 6 8 6H16C16.2652 6 16.5196 6.10536 16.7071 6.29289C16.8946 6.48043 17 6.73478 17 7C17 7.26522 16.8946 7.51957 16.7071 7.70711C16.5196 7.89464 16.2652 8 16 8Z" fill="#8C8C8C"/>
</svg>
