<svg width="24" height="24" viewBox="0 0 24 24" fill="none" xmlns="http://www.w3.org/2000/svg">
<path d="M5.625 12.375C5.14291 12.375 4.67164 12.518 4.2708 12.7858C3.86995 13.0536 3.55753 13.4343 3.37304 13.8797C3.18856 14.3251 3.14029 14.8152 3.23434 15.288C3.32839 15.7609 3.56054 16.1952 3.90143 16.5361C4.24232 16.877 4.67664 17.1091 5.14947 17.2032C5.6223 17.2972 6.1124 17.249 6.55779 17.0645C7.00319 16.88 7.38387 16.5676 7.65171 16.1667C7.91954 15.7659 8.0625 15.2946 8.0625 14.8125C8.06177 14.1663 7.80473 13.5467 7.34777 13.0897C6.8908 12.6328 6.27124 12.3757 5.625 12.375ZM5.625 15.9375C5.4025 15.9375 5.18499 15.8715 4.99998 15.7479C4.81498 15.6243 4.67078 15.4486 4.58564 15.243C4.50049 15.0375 4.47821 14.8113 4.52162 14.593C4.56503 14.3748 4.67217 14.1743 4.82951 14.017C4.98684 13.8597 5.1873 13.7525 5.40552 13.7091C5.62375 13.6657 5.84995 13.688 6.05552 13.7731C6.26109 13.8583 6.43679 14.0025 6.5604 14.1875C6.68402 14.3725 6.75 14.59 6.75 14.8125C6.75 15.1109 6.63147 15.397 6.4205 15.608C6.20952 15.819 5.92337 15.9375 5.625 15.9375Z" fill="#8C8C8C"/>
<path d="M19.125 12.375C18.6429 12.375 18.1716 12.518 17.7708 12.7858C17.37 13.0536 17.0575 13.4343 16.873 13.8797C16.6886 14.3251 16.6403 14.8152 16.7343 15.288C16.8284 15.7609 17.0605 16.1952 17.4014 16.5361C17.7423 16.877 18.1766 17.1091 18.6495 17.2032C19.1223 17.2972 19.6124 17.249 20.0578 17.0645C20.5032 16.88 20.8839 16.5676 21.1517 16.1667C21.4195 15.7659 21.5625 15.2946 21.5625 14.8125C21.5618 14.1663 21.3047 13.5467 20.8478 13.0897C20.3908 12.6328 19.7712 12.3757 19.125 12.375ZM19.125 15.9375C18.9025 15.9375 18.685 15.8715 18.5 15.7479C18.315 15.6243 18.1708 15.4486 18.0856 15.243C18.0005 15.0375 17.9782 14.8113 18.0216 14.593C18.065 14.3748 18.1722 14.1743 18.3295 14.017C18.4868 13.8597 18.6873 13.7525 18.9055 13.7091C19.1238 13.6657 19.35 13.688 19.5555 13.7731C19.7611 13.8583 19.9368 14.0025 20.0604 14.1875C20.184 14.3725 20.25 14.59 20.25 14.8125C20.25 15.1109 20.1315 15.397 19.9205 15.608C19.7095 15.819 19.4234 15.9375 19.125 15.9375Z" fill="#8C8C8C"/>
<path d="M22.3781 10.3613L18 9.56251L14.2727 6.46993C13.9033 6.16649 13.4402 6.00043 12.9622 6.00001H7.47094C7.16149 5.99927 6.85589 6.06852 6.57698 6.20257C6.29808 6.33662 6.05309 6.532 5.86036 6.7741L3.47963 9.56251H1.875C1.4276 9.563 0.998666 9.74095 0.682305 10.0573C0.365945 10.3737 0.187996 10.8026 0.1875 11.25V13.3125C0.188108 13.8593 0.405602 14.3836 0.792264 14.7702C1.17893 15.1569 1.70318 15.3744 2.25 15.375H2.67867C2.59547 14.9411 2.60914 14.4941 2.71872 14.0661C2.8283 13.638 3.03107 13.2395 3.31256 12.8989C3.59404 12.5583 3.94727 12.2841 4.34702 12.0959C4.74677 11.9077 5.18316 11.8101 5.625 11.8101C6.06684 11.8101 6.50323 11.9077 6.90298 12.0959C7.30273 12.2841 7.65596 12.5583 7.93744 12.8989C8.21893 13.2395 8.4217 13.638 8.53128 14.0661C8.64086 14.4941 8.65453 14.9411 8.57133 15.375H16.1787C16.0955 14.9411 16.1091 14.4941 16.2187 14.0661C16.3283 13.638 16.5311 13.2395 16.8126 12.8989C17.094 12.5583 17.4473 12.2841 17.847 12.0959C18.2468 11.9077 18.6832 11.8101 19.125 11.8101C19.5668 11.8101 20.0032 11.9077 20.403 12.0959C20.8027 12.2841 21.156 12.5583 21.4374 12.8989C21.7189 13.2395 21.9217 13.638 22.0313 14.0661C22.1409 14.4941 22.1545 14.9411 22.0713 15.375H22.125C22.5724 15.3745 23.0013 15.1966 23.3177 14.8802C23.6341 14.5638 23.812 14.1349 23.8125 13.6875V12.0296C23.8145 11.6254 23.6705 11.234 23.407 10.9275C23.1434 10.621 22.7781 10.4199 22.3781 10.3613ZM8.4375 9.00001C8.4375 9.14919 8.37824 9.29226 8.27275 9.39775C8.16726 9.50324 8.02418 9.56251 7.875 9.56251H5.40211C5.34833 9.56254 5.29567 9.54715 5.25038 9.51817C5.20508 9.48918 5.16904 9.44782 5.14653 9.39898C5.12401 9.35014 5.11598 9.29588 5.12337 9.24261C5.13076 9.18934 5.15326 9.13931 5.18822 9.09844L6.82491 7.18126C6.87775 7.11948 6.94335 7.06989 7.0172 7.0359C7.09105 7.00191 7.17139 6.98433 7.25269 6.98438H7.875C8.02418 6.98438 8.16726 7.04364 8.27275 7.14913C8.37824 7.25462 8.4375 7.3977 8.4375 7.54688V9.00001ZM11.25 11.625H10.5C10.3508 11.625 10.2077 11.5657 10.1023 11.4603C9.99676 11.3548 9.9375 11.2117 9.9375 11.0625C9.9375 10.9133 9.99676 10.7702 10.1023 10.6648C10.2077 10.5593 10.3508 10.5 10.5 10.5H11.25C11.3992 10.5 11.5423 10.5593 11.6477 10.6648C11.7532 10.7702 11.8125 10.9133 11.8125 11.0625C11.8125 11.2117 11.7532 11.3548 11.6477 11.4603C11.5423 11.5657 11.3992 11.625 11.25 11.625ZM15.6787 9.57629L10.3112 9.56382C10.1622 9.56347 10.0195 9.50405 9.91429 9.3986C9.80908 9.29315 9.75 9.15028 9.75 9.00132V7.54688C9.75 7.3977 9.80926 7.25462 9.91475 7.14913C10.0202 7.04364 10.1633 6.98438 10.3125 6.98438H13.0101C13.1365 6.98439 13.2592 7.02699 13.3585 7.10532L15.8535 9.07407C15.8995 9.11028 15.9331 9.15994 15.9495 9.21613C15.9659 9.27232 15.9644 9.33223 15.9452 9.38751C15.9259 9.44279 15.8899 9.49069 15.8421 9.52453C15.7944 9.55837 15.7372 9.57646 15.6787 9.57629Z" fill="#8C8C8C"/>
</svg>
