<svg width="24" height="24" viewBox="0 0 24 24" fill="none" xmlns="http://www.w3.org/2000/svg">
<path d="M16.116 8.43601C15.804 7.82001 15.444 7.25201 14.968 6.73201C14.892 6.64801 14.784 6.60001 14.672 6.60001H13.196C13.38 6.58801 14.952 6.39201 14.82 3.82001C14.812 3.67601 14.884 3.54001 15.008 3.46001C15.132 3.38401 15.284 3.38001 15.412 3.44801C15.452 3.47201 16.392 4.00001 16.716 5.19201C16.98 6.15201 16.776 7.24401 16.116 8.43601Z" fill="white"/>
<path d="M10.844 6.60001H9.46401C9.35201 6.60001 9.24401 6.64801 9.16801 6.73201C8.69201 7.25601 8.30001 7.83601 7.95201 8.48401C7.26801 7.27201 7.05601 6.16801 7.32401 5.19201C7.64801 4.00001 8.58801 3.47201 8.62801 3.44801C8.75601 3.38001 8.90801 3.38401 9.03201 3.46001C9.15601 3.54001 9.22801 3.67601 9.22001 3.82001C9.08801 6.39601 10.664 6.58801 10.844 6.60001Z" fill="white"/>
<path d="M21.5 10.272C20.824 11.048 20.16 11.604 19.468 11.976C19.004 12.228 18.468 12.384 17.876 12.436L17.092 12.5C17.076 12.56 17.056 12.62 17.036 12.68L16.904 13.056C16.596 13.916 16.3 14.744 16.1 15.52C15.164 14.704 13.712 14.2 12.02 14.2C10.328 14.2 8.876 14.704 7.94 15.52C7.74 14.744 7.444 13.916 7.136 13.056L7.004 12.68C6.984 12.632 6.972 12.584 6.96 12.536L6.124 12.464C5.552 12.416 5.016 12.264 4.536 12.008C3.84 11.632 3.176 11.072 2.5 10.3C2.388 10.172 2.368 9.98801 2.452 9.84001C2.532 9.69601 2.7 9.61201 2.864 9.64001C3.28 9.70801 4.168 9.33601 5.236 8.64401C5.888 8.22401 6.688 8.11601 7.384 8.35201C7.56 8.41201 7.736 8.48801 7.908 8.56401C7.924 8.53601 7.936 8.51201 7.952 8.48401C8.3 7.83601 8.692 7.25601 9.168 6.73201C9.244 6.64801 9.352 6.60001 9.464 6.60001H14.672C14.784 6.60001 14.892 6.64801 14.968 6.73201C15.444 7.25201 15.804 7.82001 16.116 8.43601C16.128 8.46001 16.14 8.48401 16.152 8.50801C16.308 8.43601 16.464 8.37601 16.616 8.32401C17.32 8.08801 18.124 8.19601 18.768 8.61601C19.832 9.30401 20.716 9.68001 21.14 9.61201C21.304 9.58801 21.468 9.66801 21.552 9.81601C21.632 9.96401 21.612 10.144 21.5 10.272Z" fill="white"/>
<path d="M12.02 15C9.552 15 7.62 16.228 7.62 17.8C7.62 19.372 9.552 20.6 12.02 20.6C14.488 20.6 16.42 19.372 16.42 17.8C16.42 16.228 14.488 15 12.02 15ZM10.42 18.2H9.62C9.4 18.2 9.22 18.02 9.22 17.8C9.22 17.58 9.4 17.4 9.62 17.4H10.42C10.64 17.4 10.82 17.58 10.82 17.8C10.82 18.02 10.64 18.2 10.42 18.2ZM14.42 18.2H13.62C13.4 18.2 13.22 18.02 13.22 17.8C13.22 17.58 13.4 17.4 13.62 17.4H14.42C14.64 17.4 14.82 17.58 14.82 17.8C14.82 18.02 14.64 18.2 14.42 18.2Z" fill="white"/>
</svg>
