<svg width="24" height="24" viewBox="0 0 24 24" fill="none" xmlns="http://www.w3.org/2000/svg">
<g clip-path="url(#clip0_977_966)">
<path d="M12.7045 0C11.1533 0 9.84509 1.30823 9.84509 2.85937C9.84509 4.41051 11.1533 5.71874 12.7045 5.71874C14.2556 5.71874 15.517 4.41051 15.517 2.85937C15.517 1.30823 14.2556 0 12.7045 0Z" fill="white"/>
<path d="M15.826 5.71873C15.0532 6.57556 13.9465 7.12498 12.7045 7.12498C11.4625 7.12498 10.3088 6.57556 9.53609 5.71873C8.86147 6.46681 8.43884 7.44683 8.43884 8.53123V9.23435C8.43884 9.62299 8.75333 9.93748 9.14197 9.93748H16.2201C16.6087 9.93748 16.9232 9.62299 16.9232 9.23435V8.53123C16.9232 7.44683 16.5006 6.46681 15.826 5.71873Z" fill="white"/>
<path d="M6.79435 21.5814L3.21118 14.3976C2.8652 13.7039 2.02314 13.421 1.32859 13.7651L0.392077 14.229C0.0433746 14.4019 -0.0985158 14.8257 0.0755307 15.1738L4.29427 23.6113C4.46776 23.9593 4.88977 24.0977 5.23566 23.9272L6.16013 23.4691C6.85739 23.1238 7.1416 22.2777 6.79435 21.5814Z" fill="white"/>
<path d="M23.4248 11.6109C22.8482 11.189 22.0466 11.2734 21.5685 11.7937L17.7248 16.5187C17.4576 16.8 16.9514 16.9687 16.6842 16.9687H13.4076C13.0138 16.9687 12.7045 16.6594 12.7045 16.2656C12.7045 15.8718 13.0138 15.5625 13.4076 15.5625C14.3493 15.5625 15.3919 15.5625 16.2201 15.5625C16.9935 15.5625 17.6263 14.9297 17.6263 14.1562C17.6263 13.3828 16.9935 12.75 16.2201 12.75C12.9179 12.75 16.0677 12.75 12.5357 12.75C12.1853 12.75 12.0105 12.5277 11.7341 12.2859C10.6462 11.3069 9.01779 10.8352 7.3692 11.2174C6.45382 11.4295 5.83653 11.7993 5.21046 12.2952L5.18961 12.2782L4.17261 13.1733L8.16935 21.1875H9.35285H16.2201C17.5419 21.1875 18.8076 20.5547 19.5951 19.5L23.7201 13.5937C24.1841 12.9749 24.0576 12.075 23.4248 11.6109Z" fill="white"/>
</g>
<defs>
<clipPath id="clip0_977_966">
<rect width="24" height="24" fill="white"/>
</clipPath>
</defs>
</svg>
