<svg width="24" height="24" viewBox="0 0 24 24" fill="none" xmlns="http://www.w3.org/2000/svg">
<path fill-rule="evenodd" clip-rule="evenodd" d="M19.4 20.64C18.08 20.64 17.92 19.4 17.92 18.68C17.92 17.96 17.92 13.64 17.92 13.08C17.92 12.52 18 12.44 17.56 12.44C17.416 12.44 17.312 12.44 17.24 12.44V20.72H18.44V22.4H5.20001V20.72H6.48001V3.64C6.48001 3.2 6.84001 2.84 7.28001 2.84H16.44C16.88 2.84 17.24 3.2 17.24 3.64V5.704C17.568 5.928 19.832 7.496 20.24 7.8C20.68 8.12 21 8.28 21 9.52C21 10.76 21 17.96 21 18.84C21 19.72 20.72 20.64 19.4 20.64ZM15.92 5.04C15.92 4.6 15.56 4.24 15.12 4.24H8.60001C8.16001 4.24 7.80001 4.6 7.80001 5.04V8.88C7.80001 9.32 8.16001 9.68 8.60001 9.68H15.12C15.56 9.68 15.92 9.32 15.92 8.88V5.04ZM19.84 10.68C19.84 10.04 19.4 10.12 19 10.12C18.6 10.12 17.96 10.12 17.96 10.12V7.52L17.24 7.104V11.28H18.2C18.84 11.28 19.08 11.36 19.08 12.32C19.08 13.28 19.08 18.08 19.08 18.72C19.08 19.36 19.16 19.44 19.44 19.44C19.72 19.44 19.84 19.24 19.84 18.76C19.84 18.28 19.84 11.32 19.84 10.68Z" fill="#8C8C8C"/>
</svg>
