<svg width="24" height="24" viewBox="0 0 24 24" fill="none" xmlns="http://www.w3.org/2000/svg">
<path fill-rule="evenodd" clip-rule="evenodd" d="M21.7342 14.6652H17.0437C16.7999 14.6661 16.5664 14.7634 16.394 14.9358C16.2217 15.1082 16.1244 15.3417 16.1235 15.5855V17.1516C16.1244 17.3953 16.2217 17.6289 16.394 17.8012C16.5664 17.9736 16.7999 18.0709 17.0437 18.0718H21.7342V14.6652ZM18.0112 15.2828C18.2624 15.2827 18.5059 15.3698 18.7001 15.5292C18.8943 15.6886 19.0272 15.9103 19.0762 16.1567C19.1252 16.4031 19.0873 16.6589 18.9689 16.8804C18.8505 17.102 18.6589 17.2756 18.4268 17.3717C18.1947 17.4679 17.9365 17.4805 17.6961 17.4076C17.4557 17.3347 17.248 17.1807 17.1084 16.9718C16.9689 16.7629 16.9061 16.5121 16.9307 16.2621C16.9553 16.0121 17.0659 15.7784 17.2435 15.6008C17.3442 15.4998 17.4639 15.4197 17.5956 15.3651C17.7274 15.3106 17.8686 15.2826 18.0112 15.2828Z" fill="#8C8C8C"/>
<path fill-rule="evenodd" clip-rule="evenodd" d="M5.7126 8.94257H10.1916C10.8258 8.47162 11.2955 7.81269 11.5338 7.05946C11.7721 6.30624 11.7669 5.49707 11.5189 4.74699C11.2708 3.99691 10.7927 3.34411 10.1523 2.88141C9.512 2.41871 8.74209 2.16965 7.95208 2.16965C7.16206 2.16965 6.39215 2.41871 5.75181 2.88141C5.11148 3.34411 4.63331 3.99691 4.3853 4.74699C4.13728 5.49707 4.13205 6.30624 4.37033 7.05946C4.60862 7.81269 5.0783 8.47162 5.7126 8.94257ZM9.16405 4.65974C9.19912 4.73293 9.20402 4.81697 9.1777 4.89374C9.15138 4.97052 9.09594 5.03387 9.02335 5.07015C8.95075 5.10643 8.8668 5.11273 8.7896 5.08769C8.7124 5.06266 8.64813 5.00828 8.61065 4.9363C8.53582 4.80369 8.41559 4.70257 8.27212 4.65158C8.06499 4.57046 7.83603 4.56426 7.62482 4.63405C7.4836 4.6768 7.36007 4.76424 7.27283 4.88324C6.94382 5.36286 7.57715 5.58013 7.93898 5.64182C8.54301 5.74494 9.02952 5.90104 9.17544 6.57735C9.20419 6.71228 9.20467 6.85171 9.17686 6.98684C9.14905 7.12198 9.09355 7.24988 9.01387 7.3625C8.84943 7.59348 8.61416 7.76455 8.34374 7.84977C8.29162 7.86711 8.24287 7.88108 8.19787 7.8914V8.35888C8.19787 8.44128 8.16513 8.5203 8.10687 8.57857C8.0486 8.63683 7.96958 8.66957 7.88718 8.66957C7.80478 8.66957 7.72575 8.63683 7.66749 8.57857C7.60922 8.5203 7.57649 8.44128 7.57649 8.35888V7.90635C7.47222 7.8882 7.37011 7.85928 7.2718 7.82005C6.98771 7.71264 6.75257 7.50527 6.61049 7.23683C6.59153 7.20041 6.58 7.16058 6.57659 7.11966C6.57317 7.07874 6.57794 7.03756 6.59061 6.9985C6.60327 6.95944 6.62359 6.92329 6.65037 6.89217C6.67715 6.86104 6.70986 6.83556 6.74659 6.8172C6.78332 6.79884 6.82334 6.78798 6.86431 6.78525C6.90528 6.78252 6.94638 6.78797 6.98522 6.80129C7.02407 6.8146 7.05987 6.83552 7.09054 6.86282C7.12122 6.89011 7.14616 6.92324 7.1639 6.96027C7.23872 7.09288 7.35895 7.19398 7.50243 7.24494C7.70975 7.32493 7.93828 7.33114 8.14963 7.26252C8.29089 7.21977 8.41444 7.13231 8.50171 7.01329C8.53341 6.96949 8.55573 6.91961 8.56725 6.86679C8.57876 6.81396 8.57924 6.75932 8.56865 6.7063C8.49458 6.36224 8.12577 6.30341 7.83458 6.25377C7.23116 6.15088 6.74469 5.99488 6.59905 5.31913C6.57033 5.1842 6.56986 5.04478 6.59768 4.90966C6.62549 4.77453 6.68099 4.64664 6.76068 4.53402C6.92509 4.30311 7.1603 4.13211 7.43066 4.04694C7.48279 4.0296 7.53154 4.01563 7.57658 4.00527V3.51144C7.57658 3.42904 7.60932 3.35002 7.66758 3.29175C7.72585 3.23349 7.80487 3.20075 7.88727 3.20075C7.96967 3.20075 8.0487 3.23349 8.10696 3.29175C8.16523 3.35002 8.19796 3.42904 8.19796 3.51144V3.99022C8.59743 4.06016 8.97768 4.28933 9.16405 4.65974Z" fill="#8C8C8C"/>
<path fill-rule="evenodd" clip-rule="evenodd" d="M13.8443 8.03352V6.61115H12.2743C12.2015 7.07494 12.054 7.52387 11.8376 7.94052C11.6475 8.30641 11.4069 8.64373 11.1229 8.94257H19.4156V7.2028C19.4156 6.84125 19.0634 6.61115 18.7277 6.61115H17.4928V8.03352C17.4928 8.11592 17.4601 8.19493 17.4018 8.2532C17.3435 8.31146 17.2645 8.3442 17.1821 8.34421H14.155C14.0726 8.34421 13.9935 8.31148 13.9353 8.25321C13.877 8.19494 13.8443 8.11592 13.8443 8.03352Z" fill="#8C8C8C"/>
<path fill-rule="evenodd" clip-rule="evenodd" d="M18.3396 16.0401C18.2637 15.9641 18.1637 15.9168 18.0567 15.9062C17.9498 15.8956 17.8425 15.9225 17.7531 15.9821C17.6637 16.0418 17.5978 16.1307 17.5665 16.2335C17.5353 16.3363 17.5407 16.4468 17.5818 16.5461C17.6229 16.6454 17.6972 16.7274 17.792 16.7781C17.8868 16.8288 17.9962 16.845 18.1016 16.8241C18.207 16.8031 18.3019 16.7463 18.3701 16.6632C18.4383 16.5801 18.4756 16.476 18.4756 16.3685C18.4757 16.3075 18.4637 16.2471 18.4404 16.1908C18.417 16.1344 18.3828 16.0832 18.3396 16.0401Z" fill="#8C8C8C"/>
<path fill-rule="evenodd" clip-rule="evenodd" d="M3.58823 9.56396C3.02465 9.56396 2.58356 9.38973 2.26575 9.11823V21.3208C2.26575 22.2899 3.14451 22.9763 4.0725 22.9763H19.9275C20.8557 22.9763 21.7342 22.2899 21.7342 21.3208V18.6932H17.0437C16.6351 18.6923 16.2435 18.5296 15.9546 18.2407C15.6656 17.9517 15.5029 17.5602 15.5019 17.1516V15.5855C15.5028 15.1769 15.6656 14.7852 15.9545 14.4963C16.2435 14.2074 16.6351 14.0447 17.0437 14.0438H21.7342V11.2194C21.7342 10.2503 20.8555 9.56396 19.9275 9.56396H3.58823Z" fill="#8C8C8C"/>
<path fill-rule="evenodd" clip-rule="evenodd" d="M3.62983 6.61115C3.10408 6.61115 2.60383 6.78927 2.37696 7.29918C2.31149 7.44991 2.27771 7.6125 2.27771 7.77683C2.27771 7.94117 2.31149 8.10375 2.37696 8.25449C2.54875 8.64079 2.95132 8.94257 3.58825 8.94257H4.78127C4.4972 8.64377 4.25661 8.30648 4.06657 7.94061C3.85017 7.52394 3.70268 7.07497 3.62983 6.61115Z" fill="#8C8C8C"/>
<path fill-rule="evenodd" clip-rule="evenodd" d="M14.4656 3.8961V7.72284H16.8714V3.8961C16.8714 3.8553 16.8794 3.81489 16.895 3.77719C16.9106 3.73949 16.9335 3.70524 16.9623 3.67638C16.9912 3.64753 17.0254 3.62464 17.0631 3.60902C17.1008 3.59341 17.1412 3.58537 17.182 3.58537H17.9945L15.6685 1.02374L13.3425 3.58537H14.155C14.2373 3.58539 14.3164 3.61814 14.3746 3.67641C14.4329 3.73468 14.4656 3.81371 14.4656 3.8961Z" fill="#8C8C8C"/>
</svg>
