<svg width="24" height="24" viewBox="0 0 24 24" fill="none" xmlns="http://www.w3.org/2000/svg">
<path d="M22.275 21.3366C22.2568 21.3229 22.2422 21.305 22.2324 21.2844C22.2226 21.2639 22.2179 21.2413 22.2187 21.2185C22.4113 16.8415 21.8943 11.2125 21.4879 9.29784C19.0035 10.0789 16.0172 10.4704 12.7644 10.4704C9.68844 10.4704 6.37414 10.1206 3.0177 9.41948C2.84733 9.38608 2.67917 9.34225 2.51417 9.28823C2.10739 11.1933 1.58839 16.8341 1.78123 21.2185C1.78207 21.2413 1.77739 21.2639 1.7676 21.2844C1.7578 21.305 1.74318 21.3229 1.72498 21.3366C1.39859 21.5893 1.00419 22.2385 1.22952 22.5891C1.46253 22.9515 1.9805 22.7374 2.31702 22.7271C4.50552 22.6603 6.71858 23.6246 11.9999 23.6246C17.2812 23.6246 19.4943 22.6603 21.6828 22.7271C22.0192 22.7374 22.5372 22.9515 22.7703 22.5891C22.9956 22.2385 22.6012 21.5893 22.275 21.3366ZM14.8305 20.5866C14.8305 20.5866 14.0903 20.2477 13.8902 20.1015C13.0907 19.5173 12.5705 19.3242 12.2108 19.3806V18.145C12.3699 17.9123 12.548 17.6932 12.7433 17.4899C12.9497 17.5727 13.1722 17.6074 13.394 17.5912C13.6158 17.575 13.831 17.5084 14.0232 17.3965C14.5726 17.0814 14.8994 16.4225 15.0378 16.0835C15.0484 16.0574 15.053 16.0292 15.0512 16.0011C15.0495 15.973 15.0414 15.9457 15.0276 15.9211C15.0138 15.8966 14.9947 15.8754 14.9716 15.8593C14.9486 15.8431 14.9222 15.8324 14.8944 15.8278C14.5288 15.7678 13.7834 15.7013 13.2323 16.0171C13.0291 16.1324 12.8562 16.2944 12.7281 16.4898C12.6 16.6852 12.5203 16.9083 12.4956 17.1406C12.3955 17.2383 12.3005 17.341 12.2108 17.4484V15.4769C12.3915 15.3399 12.5378 15.1629 12.6385 14.9598C12.7391 14.7566 12.7912 14.5329 12.7907 14.3063C12.7932 13.6729 12.3865 13.0601 12.1623 12.7706C12.1451 12.7483 12.123 12.7302 12.0978 12.7176C12.0726 12.705 12.0449 12.6983 12.0167 12.6979C11.9886 12.6975 11.9607 12.7035 11.9351 12.7154C11.9096 12.7273 11.8871 12.7448 11.8693 12.7666C11.6341 13.0532 11.2032 13.6647 11.2007 14.3001C11.1986 14.5304 11.2507 14.758 11.3529 14.9645C11.455 15.1709 11.6044 15.3504 11.7888 15.4884V17.4478C11.6993 17.3407 11.6044 17.2382 11.5045 17.1407C11.4798 16.9084 11.4001 16.6853 11.272 16.4899C11.1439 16.2945 10.9711 16.1325 10.7679 16.0172C10.2167 15.7012 9.47159 15.7679 9.10578 15.8279C9.07797 15.8324 9.05153 15.8431 9.02843 15.8593C9.00534 15.8754 8.98618 15.8966 8.9724 15.9211C8.95862 15.9457 8.95056 15.9731 8.94882 16.0012C8.94709 16.0293 8.95173 16.0575 8.96239 16.0836C9.10072 16.4226 9.42753 17.0815 9.97695 17.3966C10.1691 17.5085 10.3842 17.575 10.606 17.5912C10.8278 17.6074 11.0503 17.5728 11.2566 17.49C11.4517 17.693 11.6296 17.9119 11.7885 18.1442V19.5804C11.6623 19.6461 11.63 19.6058 11.4016 19.6C11.1044 19.593 10.8063 19.7912 10.4965 20.072C10.1878 20.3522 9.51172 20.808 9.5067 20.8116C8.62042 20.2762 7.9301 19.4697 7.53796 18.5114C7.14582 17.5531 7.07271 16.4939 7.32946 15.4909C7.58621 14.4878 8.15916 13.594 8.96348 12.942C9.7678 12.2899 10.7607 11.9142 11.7952 11.8705C12.8297 11.8267 13.8508 12.1173 14.7073 12.6992C15.5638 13.281 16.2101 14.1233 16.5506 15.1011C16.891 16.079 16.9076 17.1405 16.5977 18.1284C16.2878 19.1164 15.668 19.9783 14.8301 20.5866L14.8305 20.5866Z" fill="#8C8C8C"/>
<path d="M3.73644 4.00406C8.77508 5.50702 16.4433 5.53814 20.4815 4.07194C20.5403 4.05061 20.5995 4.02788 20.6589 4.00472C20.3558 3.45572 19.7401 3.03398 18.8224 2.7502C18.5715 2.67329 18.3434 2.53603 18.1579 2.35045C17.3407 1.52583 16.4814 0.847922 14.2218 0.897328H14.218C14.1048 0.897328 13.8707 0.791578 13.623 0.679688C13.2123 0.494156 12.6499 0.240141 12.0215 0.176484L12.013 0.175781C9.45078 0.0206719 8.07889 1.09317 7.34183 1.66941C7.18484 1.79212 7.00686 1.9313 6.94733 1.94363C6.59886 1.99364 5.40926 2.19338 4.7315 2.6625C4.38969 2.89908 4.07853 3.18872 3.53717 3.92934C3.5727 3.94378 3.60308 3.95606 3.62553 3.96511C3.66303 3.98025 3.69926 3.993 3.73644 4.00406ZM8.34636 4.1408C8.34636 4.30809 8.25369 4.35342 8.16823 4.36645C8.03994 4.38595 7.87648 4.30809 7.87648 4.1408C7.87648 3.9735 7.96011 3.91556 8.08991 3.91556C8.2197 3.91556 8.34636 3.97345 8.34636 4.1408ZM7.80992 2.28961C7.96559 2.28961 8.04898 2.39002 8.04898 2.54569C8.04898 2.70136 7.99376 2.78006 7.83805 2.78006C7.68233 2.78006 7.52811 2.72719 7.52811 2.57152C7.52811 2.49677 7.5578 2.42508 7.61064 2.37221C7.66349 2.31935 7.73517 2.28963 7.80992 2.28961ZM7.03503 3.09731C7.16483 3.09731 7.29167 3.15525 7.29167 3.32255C7.29167 3.48984 7.199 3.53517 7.11355 3.5482C6.98525 3.5677 6.8218 3.48989 6.8218 3.32255C6.8218 3.1552 6.90523 3.09731 7.03503 3.09731ZM6.47122 3.91556C6.60101 3.91556 6.72786 3.97345 6.72786 4.1408C6.72786 4.30814 6.63519 4.35342 6.54973 4.36645C6.42144 4.38595 6.25798 4.30809 6.25798 4.1408C6.25798 3.9735 6.34142 3.91556 6.47122 3.91556ZM5.56447 3.19022C5.72197 3.13697 5.89536 3.19622 5.94856 3.35372C6.00176 3.51122 5.96698 3.65105 5.80948 3.7043C5.73389 3.72979 5.65127 3.72424 5.57976 3.68887C5.50825 3.65349 5.45371 3.59118 5.42811 3.51563C5.37462 3.35794 5.40692 3.24347 5.56447 3.19022Z" fill="#8C8C8C"/>
<path d="M1.92188 8.0625C1.92188 8.3355 1.98009 8.53847 2.07286 8.69208C2.18175 8.73014 2.29209 8.76736 2.39269 8.8013C2.48217 8.83148 2.56439 8.85919 2.63236 8.88305C2.78668 8.93447 2.94421 8.97573 3.10392 9.00656C9.94913 10.4362 16.6096 10.3941 21.3778 8.89036C21.5159 8.84677 21.705 8.77931 21.8891 8.70314C21.9278 8.58857 21.9456 8.46799 21.9417 8.34713C21.9337 7.51519 21.2063 7.46709 21.6469 6.52125C21.8535 6.07767 22.0469 5.85938 21.9503 5.1802C21.8998 4.82494 21.5461 4.41014 21.1108 4.27463C20.9472 4.34541 20.7852 4.41056 20.6255 4.4685C18.6469 5.18686 15.8033 5.58192 12.6141 5.58192H12.5625C9.31575 5.57756 6.13856 5.1608 3.61617 4.40836C3.56625 4.39355 3.51773 4.37653 3.468 4.35642C3.3683 4.31625 3.20016 4.24786 3.01875 4.17188C2.63761 4.25494 2.25366 4.53117 2.18738 5.17205C2.16896 5.37715 2.19128 5.58387 2.25303 5.78031C2.31479 5.97676 2.41478 6.15906 2.54723 6.31673C2.60137 6.37592 2.63895 6.44833 2.65618 6.52667C2.67341 6.605 2.66969 6.6865 2.64539 6.76294C2.51016 7.14183 1.92188 7.23436 1.92188 8.0625Z" fill="#8C8C8C"/>
</svg>
