<svg width="24" height="24" viewBox="0 0 24 24" fill="none" xmlns="http://www.w3.org/2000/svg">
<g clip-path="url(#clip0_977_1013)">
<path fill-rule="evenodd" clip-rule="evenodd" d="M6.42857 2.57142H7.28571V0H6.42857C6.19186 0 6 0.191864 6 0.428571V2.14285C6 2.37956 6.1919 2.57142 6.42857 2.57142Z" fill="white"/>
<path fill-rule="evenodd" clip-rule="evenodd" d="M10.2857 0H11.5714V2.57142H10.2857V0Z" fill="white"/>
<path fill-rule="evenodd" clip-rule="evenodd" d="M8.14285 0H9.42857V2.57142H8.14285V0Z" fill="white"/>
<path fill-rule="evenodd" clip-rule="evenodd" d="M12.4286 0H13.7143V2.57142H12.4286V0Z" fill="white"/>
<path fill-rule="evenodd" clip-rule="evenodd" d="M14.5714 0H15.8572V2.57142H14.5714V0Z" fill="white"/>
<path fill-rule="evenodd" clip-rule="evenodd" d="M18 2.14285V0.428571C18 0.191864 17.8081 0 17.5714 0H16.7143V2.57142H17.5714C17.8081 2.57142 18 2.37956 18 2.14285Z" fill="white"/>
<path d="M18.6536 6.84214L17.0468 3.42857H6.95313L5.34642 6.84259C4.71116 8.19087 4.35447 9.6535 4.2977 11.1429H19.7023C19.6455 9.65334 19.2888 8.19059 18.6536 6.84214ZM8.14714 4.91787L6.89741 7.57245C6.54071 8.33011 6.28636 9.13186 6.14099 9.9566C6.10521 10.1616 5.92737 10.3112 5.71927 10.3114C5.69429 10.3114 5.66931 10.3093 5.64469 10.305C5.41173 10.2641 5.25597 10.0421 5.2967 9.80914C5.45521 8.90941 5.73265 8.03474 6.12169 7.20814L7.37143 4.55316C7.43658 4.4146 7.5707 4.32128 7.72328 4.30843C7.87586 4.29558 8.02373 4.36508 8.11112 4.49079C8.19855 4.61649 8.21229 4.77931 8.14714 4.91787Z" fill="white"/>
<path d="M4.28571 22.2857C4.28571 23.2325 5.0532 24 5.99999 24H18C18.9468 24 19.7143 23.2325 19.7143 22.2857V19.7143H4.28571V22.2857ZM5.14285 21.4286C5.14285 21.1919 5.33471 21 5.57142 21C5.80812 21 5.99999 21.1919 5.99999 21.4286V22.2857H6.85713C7.09384 22.2857 7.2857 22.4776 7.2857 22.7143C7.2857 22.951 7.09384 23.1429 6.85713 23.1429H5.99999C5.52661 23.1429 5.14285 22.7591 5.14285 22.2857V21.4286Z" fill="white"/>
<path d="M4.28571 12V18.8572H19.7143V12H4.28571ZM8.57141 15.8572C8.57141 16.8039 7.80392 17.5714 6.85713 17.5714C5.91034 17.5714 5.14285 16.8039 5.14285 15.8572V15C5.14248 14.2048 5.68911 13.5137 6.46305 13.3309C7.23699 13.1481 8.03502 13.5215 8.39055 14.2329C8.49708 14.4445 8.41186 14.7024 8.20026 14.8089C7.98865 14.9154 7.73075 14.8302 7.62426 14.6186C7.44694 14.2628 7.04819 14.0756 6.66116 14.1665C6.27413 14.2574 6.00039 14.6025 5.99995 15V15.8572C5.99995 16.3305 6.38372 16.7143 6.85709 16.7143C7.33046 16.7143 7.71423 16.3305 7.71423 15.8572H7.28566C7.04895 15.8572 6.85709 15.6653 6.85709 15.4286C6.85709 15.1919 7.04895 15 7.28566 15H8.1428C8.37951 15 8.57137 15.1919 8.57137 15.4286V15.8572H8.57141ZM12 17.1429C12 17.3796 11.8082 17.5714 11.5714 17.5714C11.3347 17.5714 11.1429 17.3796 11.1429 17.1429V15.8572H10.2857V17.1429C10.2857 17.3796 10.0939 17.5714 9.85716 17.5714C9.62046 17.5714 9.42859 17.3796 9.42859 17.1429V13.7143C9.42859 13.4776 9.62046 13.2857 9.85716 13.2857C10.0939 13.2857 10.2857 13.4776 10.2857 13.7143V15H11.1429V13.7143C11.1429 13.4776 11.3347 13.2857 11.5714 13.2857C11.8082 13.2857 12 13.4776 12 13.7143V17.1429ZM15 15C15.2367 15 15.4286 15.1919 15.4286 15.4286C15.4286 15.6653 15.2367 15.8572 15 15.8572H13.7143V16.7143H15C15.2367 16.7143 15.4286 16.9062 15.4286 17.1429C15.4286 17.3796 15.2367 17.5714 15 17.5714H13.2857C13.049 17.5714 12.8572 17.3796 12.8572 17.1429V13.7143C12.8572 13.4776 13.049 13.2857 13.2857 13.2857H15C15.2367 13.2857 15.4286 13.4776 15.4286 13.7143C15.4286 13.951 15.2367 14.1429 15 14.1429H13.7143V15H15ZM18.4286 15C18.6653 15 18.8572 15.1919 18.8572 15.4286C18.8572 15.6653 18.6653 15.8572 18.4286 15.8572H17.1429V16.7143H18.4286C18.6653 16.7143 18.8572 16.9062 18.8572 17.1429C18.8572 17.3796 18.6653 17.5714 18.4286 17.5714H16.7143C16.4776 17.5714 16.2857 17.3796 16.2857 17.1429V13.7143C16.2857 13.4776 16.4776 13.2857 16.7143 13.2857H18.4286C18.6653 13.2857 18.8572 13.4776 18.8572 13.7143C18.8572 13.951 18.6653 14.1429 18.4286 14.1429H17.1429V15H18.4286Z" fill="white"/>
</g>
<defs>
<clipPath id="clip0_977_1013">
<rect width="24" height="24" fill="white"/>
</clipPath>
</defs>
</svg>
