<svg width="24" height="24" viewBox="0 0 24 24" fill="none" xmlns="http://www.w3.org/2000/svg">
<g clip-path="url(#clip0_977_947)">
<path d="M17.6858 20.8776C18.1855 12.8742 21.2199 6.55143 21.2199 6.55143C15.2121 9.92662 14.1166 18.2138 13.9226 21.5954C14.2027 9.57177 17.8095 0.931305 17.8095 0.931305C10.7341 6.94902 10.1696 18.7332 10.1594 22.1309C10.0502 19.1887 9.192 10.1218 2.83669 6.55143C2.83669 6.55143 6.08784 13.3257 6.41381 21.7262C6.23311 19.4658 5.2028 14.9924 0 13.4158C0 13.4158 2.70122 16.6334 2.70122 23.0687H21.2988C21.2988 16.6334 24 13.4158 24 13.4158C19.3881 14.8133 18.0551 18.4867 17.6858 20.8776Z" fill="white"/>
</g>
<defs>
<clipPath id="clip0_977_947">
<rect width="24" height="24" fill="white"/>
</clipPath>
</defs>
</svg>
