<svg width="24" height="24" viewBox="0 0 24 24" fill="none" xmlns="http://www.w3.org/2000/svg">
<g clip-path="url(#clip0_978_1104)">
<path d="M20.55 16.68C20.64 16.5225 20.8238 16.4437 20.9963 16.5L21.8775 16.7888C22.0763 16.8525 22.2863 16.7437 22.35 16.545L23.1 14.25H19.155C18.2025 17.295 15.36 19.5 12 19.5C8.64002 19.5 5.79752 17.295 4.84502 14.25H0.900024L1.65002 16.545C1.71377 16.7437 1.92377 16.8525 2.12252 16.7888L3.00377 16.5C3.17627 16.4437 3.36002 16.5225 3.45002 16.68C3.84752 17.4112 4.33877 18.0863 4.90502 18.6863C5.02877 18.8175 5.04752 19.02 4.93877 19.1663L4.39502 19.9163C4.27127 20.085 4.30877 20.3175 4.47752 20.4412L6.29628 21.7612C6.46502 21.885 6.70127 21.8475 6.82127 21.6788L7.36502 20.9288C7.47377 20.7825 7.66877 20.7375 7.83377 20.8125C8.57252 21.165 9.36377 21.4275 10.1888 21.5812C10.3688 21.615 10.5 21.7687 10.5 21.9487V22.875C10.5 23.0813 10.6688 23.25 10.875 23.25H13.125C13.3313 23.25 13.5 23.0813 13.5 22.875V21.9487C13.5 21.7687 13.6313 21.615 13.8113 21.5812C14.6363 21.4275 15.4275 21.165 16.1663 20.8125C16.3313 20.7375 16.5263 20.7825 16.635 20.9288L17.1788 21.6788C17.2988 21.8475 17.535 21.885 17.7038 21.7612L19.5225 20.4412C19.6913 20.3175 19.7288 20.085 19.605 19.9163L19.0613 19.1663C18.9525 19.02 18.9713 18.8175 19.095 18.6863C19.6613 18.0863 20.1525 17.4112 20.55 16.68Z" fill="#8C8C8C"/>
<path d="M0.375 12.75H23.625V13.5H0.375V12.75Z" fill="#8C8C8C"/>
<path d="M1.125 6.375H4.125V12H1.125V6.375Z" fill="#8C8C8C"/>
<path d="M10.125 4.875H13.875V12H10.125V4.875Z" fill="#8C8C8C"/>
<path d="M19.875 6.75H22.875V12H19.875V6.75Z" fill="#8C8C8C"/>
<path d="M14.625 4.875V12H19.125V0.75H14.625V4.875ZM17.25 2.25H18V3H17.25V2.25ZM17.25 4.125H18V4.875H17.25V4.125ZM17.25 6H18V6.75H17.25V6ZM15.75 2.25H16.5V3H15.75V2.25ZM15.75 4.125H16.5V4.875H15.75V4.125ZM15.75 6H16.5V6.75H15.75V6Z" fill="#8C8C8C"/>
<path d="M4.875 12H9.375V3L7.125 1.125L4.875 3V12ZM6 3.75H8.25V4.5H6V3.75ZM6 5.625H8.25V6.375H6V5.625Z" fill="#8C8C8C"/>
</g>
<defs>
<clipPath id="clip0_978_1104">
<rect width="24" height="24" fill="white"/>
</clipPath>
</defs>
</svg>
