<svg width="24" height="24" viewBox="0 0 24 24" fill="none" xmlns="http://www.w3.org/2000/svg">
<path d="M15.9937 3.12234C16.8199 3.07945 17.4783 2.40202 17.4783 1.5652C17.4783 0.700734 16.7775 0 15.913 0H8.08696C7.2225 0 6.52171 0.700734 6.52171 1.5652C6.52171 2.40202 7.18012 3.07945 8.00634 3.1223C7.51771 7.54125 5.73914 7.83234 5.73914 12.2772V21.6522C5.73914 22.9468 6.79232 24 8.08696 24H15.9131C17.2077 24 18.2609 22.9468 18.2609 21.6522V12.2772C18.2609 7.82489 16.4834 7.55227 15.9937 3.12234ZM11.489 9.67533C10.4049 8.95256 9.11925 8.67994 7.89885 8.83088C8.0406 8.42897 8.20528 8.03531 8.39573 7.65436C9.03239 6.38025 9.42834 4.64616 9.58035 3.13041H14.4197C14.5717 4.64616 14.9676 6.38025 15.6043 7.65436C15.8696 8.18484 16.0879 8.739 16.2582 9.30764C15.6845 9.59231 13.8002 11.2162 11.489 9.67533Z" fill="white"/>
</svg>
