<svg width="24" height="24" viewBox="0 0 24 24" fill="none" xmlns="http://www.w3.org/2000/svg">
<path d="M18 4.875C15.312 4.875 13.125 7.062 13.125 9.75C13.125 12.438 15.312 14.625 18 14.625C20.688 14.625 22.875 12.438 22.875 9.75C22.875 7.062 20.688 4.875 18 4.875ZM18 13.5C15.9289 13.5 14.25 11.8211 14.25 9.75C14.25 7.67887 15.9289 6 18 6C20.0711 6 21.75 7.67887 21.75 9.75C21.75 11.8211 20.0711 13.5 18 13.5Z" fill="#8C8C8C"/>
<path d="M18.375 16.125C18.5816 16.125 18.75 15.957 18.75 15.75V15.3191C18.504 15.3521 18.255 15.375 18 15.375C17.745 15.375 17.496 15.3521 17.25 15.3191V15.75C17.25 15.957 17.4184 16.125 17.625 16.125H18.375Z" fill="#8C8C8C"/>
<path d="M18.75 16.875H18.375H17.625H17.25C17.0434 16.875 16.875 17.043 16.875 17.25V21.75C16.875 22.3703 17.3798 22.875 18 22.875C18.6202 22.875 19.125 22.3703 19.125 21.75V17.25C19.125 17.043 18.9566 16.875 18.75 16.875Z" fill="#8C8C8C"/>
<path d="M16.5 15.1658C14.7308 14.6749 13.3129 13.3421 12.7031 11.625H6.75V13.5H2.25V9H6.75V10.875H12.4882C12.4144 10.5112 12.375 10.1351 12.375 9.75C12.375 8.1195 13.0766 6.65325 14.1885 5.625H11.25V7.5H6.75V3H11.25V4.875H15.2059C15.9277 4.4595 16.7486 4.20225 17.625 4.14412V1.125H4.875V4.875H1.125V20.625H16.125V17.625H11.25V19.5H6.75V15H11.25V16.875H16.194C16.2791 16.6365 16.4396 16.4351 16.6504 16.3016C16.5574 16.1378 16.5 15.9514 16.5 15.75V15.1658ZM5.625 19.875H1.875V19.125H5.625V19.875ZM5.625 18.375H1.875V17.625H5.625V18.375ZM5.625 16.875H1.875V16.125H5.625V16.875ZM5.625 15.375H1.875V14.625H5.625V15.375Z" fill="#8C8C8C"/>
<path d="M4.12499 1.65524L1.65524 4.12499H4.12499V1.65524Z"/>
<path d="M17.625 8.625H18.375C18.5816 8.625 18.75 8.793 18.75 9H19.5C19.5 8.37975 18.9952 7.875 18.375 7.875V7.125H17.625V7.875C17.0048 7.875 16.5 8.37975 16.5 9C16.5 9.62025 17.0048 10.125 17.625 10.125H18.375C18.5816 10.125 18.75 10.293 18.75 10.5C18.75 10.707 18.5816 10.875 18.375 10.875H17.625C17.4184 10.875 17.25 10.707 17.25 10.5H16.5C16.5 11.1202 17.0048 11.625 17.625 11.625V12.375H18.375V11.625C18.9952 11.625 19.5 11.1202 19.5 10.5C19.5 9.87975 18.9952 9.375 18.375 9.375H17.625C17.4184 9.375 17.25 9.207 17.25 9C17.25 8.793 17.4184 8.625 17.625 8.625Z" fill="#8C8C8C"/>
<path d="M8.14011 16.9849L7.60986 17.5151L8.62499 18.5302L10.7651 16.3901L10.2349 15.8599L8.62499 17.4697L8.14011 16.9849Z" fill="#8C8C8C"/>
<path d="M3.64011 10.9849L3.10986 11.5151L4.12499 12.5302L6.26511 10.3901L5.73486 9.85986L4.12499 11.4697L3.64011 10.9849Z" fill="#8C8C8C"/>
<path d="M8.14011 4.98486L7.60986 5.51511L8.62499 6.53024L10.7651 4.39011L10.2349 3.85986L8.62499 5.46974L8.14011 4.98486Z" fill="#8C8C8C"/>
</svg>
