<svg width="24" height="24" viewBox="0 0 24 24" fill="none" xmlns="http://www.w3.org/2000/svg">
<path d="M23.4562 3.25709C20.5517 3.25709 16.4483 3.50012 14.3514 5.59594C13.4435 6.50382 12.9902 7.98382 13.1079 9.65899C13.1231 9.88025 13.2703 10.0688 13.4817 10.1385C13.692 10.2072 13.9231 10.1429 14.0669 9.97399C15.2331 8.60183 16.6826 7.50217 18.3785 6.70546C18.5223 6.6368 18.6924 6.63133 18.8471 6.68584C18.9833 6.73488 19.0901 6.82751 19.1457 6.94634C19.2612 7.19048 19.2242 7.51198 18.8406 7.69288C18.8187 7.70376 18.7991 7.71796 18.7774 7.72777C18.7698 7.73104 18.761 7.72997 18.7545 7.73324C14.5759 9.6972 12.5215 13.1237 11.5886 16.6473C10.9085 12.2355 9.47206 9.6383 8.11517 8.04385C7.13321 6.7709 6.16755 6.09624 5.60958 5.71482C5.50602 5.64396 5.19326 5.43036 5.06355 5.30065C4.85103 5.08813 4.85103 4.74262 5.06355 4.5301C5.27608 4.31864 5.62265 4.31864 5.85914 4.55406C5.91692 4.6053 6.00954 4.67069 6.12725 4.74916L6.22426 4.81455C7.01331 5.35511 8.48249 6.35888 9.78594 8.52009C9.90257 8.713 10.1282 8.81655 10.3472 8.77512C10.5696 8.73589 10.7439 8.56479 10.7876 8.34353C11.072 6.89075 10.9445 4.73496 9.64867 3.43912C7.55177 1.34437 3.44842 1.10135 0.545003 1.10135C0.244148 1.1013 0 1.34545 0 1.64625C0 4.55073 0.243024 8.65409 2.33884 10.751C3.2129 11.6251 4.5611 12.0174 5.90052 12.0174C6.99364 12.0174 8.065 11.7439 8.88567 11.2698C10.005 13.589 10.8987 17.0537 10.8987 22.3538C10.8987 22.6546 11.1428 22.8987 11.4436 22.8987C11.7444 22.8987 11.9886 22.6546 11.9886 22.3538C11.9886 19.397 12.4954 15.8483 14.3797 12.9275C15.135 13.6653 16.4352 14.1329 17.876 14.1765C17.948 14.1787 18.0188 14.1797 18.0896 14.1797C19.5533 14.1797 20.847 13.7209 21.6611 12.9057C23.758 10.8088 23.9999 6.70541 23.9999 3.80087C24.0011 3.50012 23.758 3.25709 23.4562 3.25709Z" fill="#8C8C8C"/>
</svg>
