<svg width="24" height="24" viewBox="0 0 24 24" fill="none" xmlns="http://www.w3.org/2000/svg">
<path d="M2.85938 0.703125V19.0781C2.85938 19.4668 3.17386 19.7812 3.5625 19.7812H16.2188C16.6074 19.7812 16.9219 19.4668 16.9219 19.0781V0.703125C16.9219 0.314484 16.6074 0 16.2188 0H3.5625C3.17386 0 2.85938 0.314484 2.85938 0.703125ZM14.1094 16.2188H11.2969C10.9082 16.2188 10.5938 15.9043 10.5938 15.5156C10.5938 15.127 10.9082 14.8125 11.2969 14.8125H14.1094C14.498 14.8125 14.8125 15.127 14.8125 15.5156C14.8125 15.9043 14.498 16.2188 14.1094 16.2188ZM5.67188 3.5625H9.89062C10.2793 3.5625 10.5938 3.87698 10.5938 4.26562C10.5938 4.65427 10.2793 4.96875 9.89062 4.96875H5.67188C5.28323 4.96875 4.96875 4.65427 4.96875 4.26562C4.96875 3.87698 5.28323 3.5625 5.67188 3.5625ZM5.67188 6.375H14.1094C14.498 6.375 14.8125 6.68948 14.8125 7.07812C14.8125 7.46677 14.498 7.78125 14.1094 7.78125H5.67188C5.28323 7.78125 4.96875 7.46677 4.96875 7.07812C4.96875 6.68948 5.28323 6.375 5.67188 6.375ZM5.67188 9.1875H14.1094C14.498 9.1875 14.8125 9.50198 14.8125 9.89062C14.8125 10.2793 14.498 10.5938 14.1094 10.5938H5.67188C5.28323 10.5938 4.96875 10.2793 4.96875 9.89062C4.96875 9.50198 5.28323 9.1875 5.67188 9.1875ZM5.67188 12H14.1094C14.498 12 14.8125 12.3145 14.8125 12.7031C14.8125 13.0918 14.498 13.4062 14.1094 13.4062H5.67188C5.28323 13.4062 4.96875 13.0918 4.96875 12.7031C4.96875 12.3145 5.28323 12 5.67188 12Z" fill="white"/>
<path d="M7.78125 24H20.4375C20.8261 24 21.1406 23.6855 21.1406 23.2969V4.96875C21.1406 4.58011 20.8261 4.26562 20.4375 4.26562H18.3281V19.0781C18.3281 20.2413 17.3819 21.1875 16.2188 21.1875H7.07812V23.2969C7.07812 23.6855 7.39261 24 7.78125 24Z" fill="white"/>
</svg>
