<svg width="24" height="24" viewBox="0 0 24 24" fill="none" xmlns="http://www.w3.org/2000/svg">
<g clip-path="url(#clip0_977_927)">
<path fill-rule="evenodd" clip-rule="evenodd" d="M12 4.60468C13.9714 4.60468 15.5721 6.20542 15.5721 8.17677C15.5721 9.25286 15.0575 10.6504 14.2504 11.5926C13.6265 12.3215 12.8328 12.7747 12 12.7747C11.1673 12.7747 10.3736 12.3215 9.74959 11.5926C8.94254 10.6504 8.42792 9.25286 8.42792 8.17677C8.42792 6.20542 10.0287 4.60468 12 4.60468Z" fill="white"/>
<path fill-rule="evenodd" clip-rule="evenodd" d="M19.2558 1.53485C20.7963 1.53485 22.0465 2.78508 22.0465 4.32555C22.0465 5.14266 21.6581 6.20536 21.0452 6.92088C20.5507 7.49911 19.9156 7.84853 19.2558 7.84853C18.5961 7.84853 17.9609 7.49915 17.4664 6.92092C16.8536 6.20541 16.4651 5.14271 16.4651 4.32555C16.4651 2.78508 17.7154 1.53485 19.2558 1.53485Z" fill="white"/>
<path fill-rule="evenodd" clip-rule="evenodd" d="M4.74417 1.53485C6.28464 1.53485 7.53487 2.78508 7.53487 4.32555C7.53487 5.14266 7.1464 6.20536 6.53359 6.92088C6.03905 7.49911 5.40391 7.84853 4.74417 7.84853C4.08443 7.84853 3.44929 7.49915 2.95475 6.92092C2.3419 6.20541 1.95343 5.14271 1.95343 4.32555C1.95347 2.78508 3.20371 1.53485 4.74417 1.53485Z" fill="white"/>
<path fill-rule="evenodd" clip-rule="evenodd" d="M12 13.3675C15.4828 13.3675 18.307 16.1916 18.307 19.6744V20.8465C18.307 21.7407 17.5825 22.4651 16.6884 22.4651H7.31163C6.41747 22.4651 5.69302 21.7407 5.69302 20.8465V19.6744C5.69302 16.1916 8.51721 13.3675 12 13.3675Z" fill="white"/>
<path fill-rule="evenodd" clip-rule="evenodd" d="M5.86826 15.4883H1.39535C0.625116 15.4883 0 14.8633 0 14.093V13.2558C0 10.6359 2.12426 8.51163 4.74419 8.51163C5.75216 8.51163 6.68651 8.82528 7.45451 9.36109C7.68893 10.3992 8.20132 11.501 8.90121 12.3181C9.03407 12.4732 9.17244 12.6173 9.31533 12.7512C7.90881 13.2971 6.70884 14.2605 5.86826 15.4883Z" fill="white"/>
<path fill-rule="evenodd" clip-rule="evenodd" d="M16.5455 9.36109C17.3135 8.82528 18.2478 8.51163 19.2558 8.51163C21.8757 8.51163 24 10.6359 24 13.2558V14.093C24 14.8633 23.3749 15.4884 22.6046 15.4884H18.1317C17.2912 14.2605 16.0912 13.2971 14.6847 12.7513C14.8275 12.6173 14.966 12.4733 15.0988 12.3181C15.7987 11.501 16.3111 10.3992 16.5455 9.36109Z" fill="white"/>
</g>
<defs>
<clipPath id="clip0_977_927">
<rect width="24" height="24" fill="white"/>
</clipPath>
</defs>
</svg>
