<svg width="24" height="24" viewBox="0 0 24 24" fill="none" xmlns="http://www.w3.org/2000/svg">
<g clip-path="url(#clip0_1023_17)">
<path fill-rule="evenodd" clip-rule="evenodd" d="M12 4.60468C13.9714 4.60468 15.5721 6.20542 15.5721 8.17677C15.5721 9.25286 15.0575 10.6504 14.2504 11.5926C13.6265 12.3215 12.8328 12.7747 12 12.7747C11.1673 12.7747 10.3736 12.3215 9.74959 11.5926C8.94254 10.6504 8.42792 9.25286 8.42792 8.17677C8.42792 6.20542 10.0287 4.60468 12 4.60468Z" fill="#8C8C8C"/>
<path fill-rule="evenodd" clip-rule="evenodd" d="M19.2558 1.53487C20.7963 1.53487 22.0465 2.7851 22.0465 4.32556C22.0465 5.14268 21.6581 6.20538 21.0452 6.92089C20.5507 7.49912 19.9156 7.84854 19.2558 7.84854C18.5961 7.84854 17.9609 7.49917 17.4664 6.92094C16.8536 6.20542 16.4651 5.14272 16.4651 4.32556C16.4651 2.7851 17.7154 1.53487 19.2558 1.53487Z" fill="#8C8C8C"/>
<path fill-rule="evenodd" clip-rule="evenodd" d="M4.74417 1.53487C6.28464 1.53487 7.53487 2.7851 7.53487 4.32556C7.53487 5.14268 7.1464 6.20538 6.53359 6.92089C6.03905 7.49912 5.40391 7.84854 4.74417 7.84854C4.08443 7.84854 3.44929 7.49917 2.95475 6.92094C2.3419 6.20542 1.95343 5.14272 1.95343 4.32556C1.95347 2.7851 3.20371 1.53487 4.74417 1.53487Z" fill="#8C8C8C"/>
<path fill-rule="evenodd" clip-rule="evenodd" d="M12 13.3675C15.4828 13.3675 18.3069 16.1916 18.3069 19.6744V20.8465C18.3069 21.7407 17.5825 22.4651 16.6883 22.4651H7.3116C6.41744 22.4651 5.69299 21.7407 5.69299 20.8465V19.6744C5.69299 16.1916 8.51718 13.3675 12 13.3675Z" fill="#8C8C8C"/>
<path fill-rule="evenodd" clip-rule="evenodd" d="M5.86826 15.4884H1.39535C0.625116 15.4884 0 14.8633 0 14.0931V13.2558C0 10.6359 2.12426 8.51166 4.74419 8.51166C5.75216 8.51166 6.68651 8.82531 7.45451 9.36112C7.68893 10.3993 8.20132 11.5011 8.90121 12.3181C9.03407 12.4733 9.17244 12.6173 9.31533 12.7512C7.90881 13.2971 6.70884 14.2605 5.86826 15.4884Z" fill="#8C8C8C"/>
<path fill-rule="evenodd" clip-rule="evenodd" d="M16.5455 9.36112C17.3135 8.82531 18.2479 8.51166 19.2558 8.51166C21.8758 8.51166 24 10.6359 24 13.2558V14.0931C24 14.8633 23.3749 15.4884 22.6047 15.4884H18.1318C17.2912 14.2605 16.0912 13.2971 14.6847 12.7513C14.8276 12.6173 14.966 12.4734 15.0989 12.3182C15.7987 11.5011 16.3111 10.3993 16.5455 9.36112Z" fill="#8C8C8C"/>
</g>
<defs>
<clipPath id="clip0_1023_17">
<rect width="24" height="24" fill="white"/>
</clipPath>
</defs>
</svg>
