<svg width="24" height="24" viewBox="0 0 24 24" fill="none" xmlns="http://www.w3.org/2000/svg">
<path d="M8.62832 7.89687C8.62832 7.60738 8.62832 6.72636 7.11912 4.34444C6.41031 3.22568 5.71219 2.31443 5.6828 2.27618L5.1252 1.55008L4.56761 2.27618C4.53822 2.31443 3.84014 3.22573 3.13129 4.34444C1.62213 6.72636 1.62213 7.60738 1.62213 7.89687C1.62213 9.82849 3.19358 11.3999 5.1252 11.3999C7.05682 11.3999 8.62832 9.82849 8.62832 7.89687Z" fill="#8C8C8C"/>
<path d="M21.2505 2.24459C20.7303 1.42366 20.2175 0.754227 20.1959 0.726104L19.6383 0L19.0807 0.726104C19.0591 0.754227 18.5463 1.42366 18.0261 2.24459C17.5421 3.00847 16.8987 4.11804 16.8987 4.931C16.8987 6.44166 18.1277 7.67061 19.6383 7.67061C21.1489 7.67061 22.3779 6.44161 22.3779 4.931C22.3779 4.11799 21.7345 3.00847 21.2505 2.24459Z" fill="#8C8C8C"/>
<path d="M13.6803 7.09943L13.1227 6.37332L12.5651 7.09943C12.508 7.17391 11.1488 8.94808 9.76662 11.1296C7.86129 14.1367 6.8952 16.3717 6.8952 17.7724C6.8952 21.2063 9.68891 24 13.1228 24C16.5567 24 19.3503 21.2063 19.3503 17.7724C19.3503 16.3717 18.3842 14.1367 16.4789 11.1296C15.0967 8.94808 13.7376 7.17391 13.6803 7.09943Z" fill="#8C8C8C"/>
</svg>
